<svg width="58" height="58" viewBox="0 0 58 58" fill="none" xmlns="http://www.w3.org/2000/svg">
<rect width="58" height="58" rx="29" fill="#E3E9F3"/>
<ellipse opacity="0.3" cx="29" cy="43.6373" rx="22.4932" ry="1.59082" fill="#0F0F0F"/>
<path d="M42.5246 6.55422L45.4268 1.49963" stroke="#0F0F0F" stroke-width="0.5" stroke-linecap="round" stroke-linejoin="round"/>
<path d="M44.71 9.41708L53.4639 4.38" stroke="#0F0F0F" stroke-width="0.5" stroke-linecap="round" stroke-linejoin="round"/>
<path d="M44.0624 13.3215H36.8707L39.2016 19.494H44.0624C44.6147 19.494 45.0624 19.0463 45.0624 18.494V14.3215C45.0624 13.7692 44.6147 13.3215 44.0624 13.3215Z" fill="#EE6854" stroke="#0F0F0F" stroke-width="0.5"/>
<path opacity="0.3" fill-rule="evenodd" clip-rule="evenodd" d="M45.0617 16.174L44.2964 16.8792C43.5578 17.5599 42.5902 17.9377 41.5858 17.9377H38.6132L39.2008 19.494H44.0617C44.614 19.494 45.0617 19.0462 45.0617 18.494V16.174Z" fill="#0F0F0F"/>
<path fill-rule="evenodd" clip-rule="evenodd" d="M11.7758 18.6916L10.6963 17.4966C10.3171 17.0768 9.77788 16.8373 9.2122 16.8373H7.87891C6.77434 16.8373 5.87891 17.7327 5.87891 18.8373V19.6889C5.87891 19.6898 5.87891 19.6907 5.87891 19.6916V22.5745C5.87891 23.1267 6.32662 23.5745 6.87891 23.5745H23.0284L22.2768 19.1488C22.2509 18.9963 22.2369 18.8434 22.2346 18.6916H11.7758Z" fill="#838383"/>
<path d="M10.6963 17.4966L10.5108 17.6642V17.6642L10.6963 17.4966ZM11.7758 18.6916L11.5903 18.8592L11.6648 18.9416H11.7758V18.6916ZM5.87891 19.6889L6.12891 19.6895V19.6889H5.87891ZM23.0284 23.5745V23.8245H23.3245L23.2749 23.5326L23.0284 23.5745ZM22.2768 19.1488L22.0303 19.1906L22.2768 19.1488ZM22.2346 18.6916L22.4845 18.6877L22.4807 18.4416H22.2346V18.6916ZM10.5108 17.6642L11.5903 18.8592L11.9614 18.524L10.8818 17.329L10.5108 17.6642ZM9.2122 17.0873C9.70717 17.0873 10.179 17.2969 10.5108 17.6642L10.8818 17.329C10.4552 16.8568 9.84859 16.5873 9.2122 16.5873V17.0873ZM7.87891 17.0873H9.2122V16.5873H7.87891V17.0873ZM6.12891 18.8373C6.12891 17.8708 6.91241 17.0873 7.87891 17.0873V16.5873C6.63627 16.5873 5.62891 17.5946 5.62891 18.8373H6.12891ZM6.12891 19.6889V18.8373H5.62891V19.6889H6.12891ZM6.12891 19.6916C6.12891 19.6909 6.12891 19.6902 6.12891 19.6895L5.62891 19.6882C5.62891 19.6893 5.62891 19.6905 5.62891 19.6916H6.12891ZM6.12891 22.5745V19.6916H5.62891V22.5745H6.12891ZM6.87891 23.3245C6.46469 23.3245 6.12891 22.9887 6.12891 22.5745H5.62891C5.62891 23.2648 6.18855 23.8245 6.87891 23.8245V23.3245ZM23.0284 23.3245H6.87891V23.8245H23.0284V23.3245ZM22.0303 19.1906L22.782 23.6163L23.2749 23.5326L22.5233 19.1069L22.0303 19.1906ZM21.9846 18.6955C21.9871 18.86 22.0023 19.0256 22.0303 19.1906L22.5233 19.1069C22.4995 18.967 22.4867 18.8268 22.4845 18.6877L21.9846 18.6955ZM11.7758 18.9416H22.2346V18.4416H11.7758V18.9416Z" fill="#0F0F0F"/>
<path d="M23.0285 23.5748H33.0439C33.95 23.5748 34.7428 22.9657 34.9763 22.0902L35.6823 19.4431C35.8916 18.6585 35.7738 17.8226 35.356 17.1263L34.9764 16.4937C34.7166 16.0608 34.3556 15.6898 33.8977 15.4771C30.3376 13.823 26.2287 14.9937 23.6078 16.3011C22.5638 16.8219 22.0814 17.9985 22.2768 19.1488L23.0285 23.5748Z" fill="#EE6854" stroke="#0F0F0F" stroke-width="0.5"/>
<path fill-rule="evenodd" clip-rule="evenodd" d="M44.5451 43.6374C49.8393 43.6374 54.131 39.3456 54.131 34.0515C54.131 28.7573 49.8393 24.4656 44.5451 24.4656C39.251 24.4656 34.9592 28.7573 34.9592 34.0515C34.9592 39.3456 39.251 43.6374 44.5451 43.6374ZM44.5453 39.6225C47.6221 39.6225 50.1163 37.1283 50.1163 34.0515C50.1163 30.9747 47.6221 28.4804 44.5453 28.4804C41.4685 28.4804 38.9742 30.9747 38.9742 34.0515C38.9742 37.1283 41.4685 39.6225 44.5453 39.6225Z" fill="#0F0F0F"/>
<path d="M53.881 34.0515C53.881 39.2075 49.7012 43.3874 44.5451 43.3874V43.8874C49.9773 43.8874 54.381 39.4837 54.381 34.0515H53.881ZM44.5451 24.7156C49.7012 24.7156 53.881 28.8954 53.881 34.0515H54.381C54.381 28.6193 49.9773 24.2156 44.5451 24.2156V24.7156ZM35.2092 34.0515C35.2092 28.8954 39.389 24.7156 44.5451 24.7156V24.2156C39.1129 24.2156 34.7092 28.6193 34.7092 34.0515H35.2092ZM44.5451 43.3874C39.389 43.3874 35.2092 39.2075 35.2092 34.0515H34.7092C34.7092 39.4837 39.1129 43.8874 44.5451 43.8874V43.3874ZM49.8663 34.0515C49.8663 36.9902 47.484 39.3725 44.5453 39.3725V39.8725C47.7601 39.8725 50.3663 37.2664 50.3663 34.0515H49.8663ZM44.5453 28.7304C47.484 28.7304 49.8663 31.1127 49.8663 34.0515H50.3663C50.3663 30.8366 47.7601 28.2304 44.5453 28.2304V28.7304ZM39.2242 34.0515C39.2242 31.1127 41.6065 28.7304 44.5453 28.7304V28.2304C41.3304 28.2304 38.7242 30.8366 38.7242 34.0515H39.2242ZM44.5453 39.3725C41.6065 39.3725 39.2242 36.9902 39.2242 34.0515H38.7242C38.7242 37.2664 41.3304 39.8725 44.5453 39.8725V39.3725Z" fill="#0F0F0F"/>
<path fill-rule="evenodd" clip-rule="evenodd" d="M13.4882 43.6374C18.7824 43.6374 23.0741 39.3456 23.0741 34.0515C23.0741 28.7573 18.7824 24.4656 13.4882 24.4656C8.19409 24.4656 3.90234 28.7573 3.90234 34.0515C3.90234 39.3456 8.19409 43.6374 13.4882 43.6374ZM13.4881 39.6225C16.5649 39.6225 19.0592 37.1283 19.0592 34.0515C19.0592 30.9747 16.5649 28.4804 13.4881 28.4804C10.4113 28.4804 7.91708 30.9747 7.91708 34.0515C7.91708 37.1283 10.4113 39.6225 13.4881 39.6225Z" fill="#0F0F0F"/>
<path d="M22.8241 34.0515C22.8241 39.2075 18.6443 43.3874 13.4882 43.3874V43.8874C18.9204 43.8874 23.3241 39.4837 23.3241 34.0515H22.8241ZM13.4882 24.7156C18.6443 24.7156 22.8241 28.8954 22.8241 34.0515H23.3241C23.3241 28.6193 18.9204 24.2156 13.4882 24.2156V24.7156ZM4.15234 34.0515C4.15234 28.8954 8.33216 24.7156 13.4882 24.7156V24.2156C8.05602 24.2156 3.65234 28.6193 3.65234 34.0515H4.15234ZM13.4882 43.3874C8.33216 43.3874 4.15234 39.2075 4.15234 34.0515H3.65234C3.65234 39.4837 8.05602 43.8874 13.4882 43.8874V43.3874ZM18.8092 34.0515C18.8092 36.9902 16.4269 39.3725 13.4881 39.3725V39.8725C16.703 39.8725 19.3092 37.2664 19.3092 34.0515H18.8092ZM13.4881 28.7304C16.4269 28.7304 18.8092 31.1127 18.8092 34.0515H19.3092C19.3092 30.8366 16.703 28.2304 13.4881 28.2304V28.7304ZM8.16708 34.0515C8.16708 31.1127 10.5494 28.7304 13.4881 28.7304V28.2304C10.2733 28.2304 7.66708 30.8366 7.66708 34.0515H8.16708ZM13.4881 39.3725C10.5494 39.3725 8.16708 36.9902 8.16708 34.0515H7.66708C7.66708 37.2664 10.2733 39.8725 13.4881 39.8725V39.3725Z" fill="#0F0F0F"/>
<path d="M28.8381 25.4406H27.2916C25.3672 25.4406 23.9988 27.3127 24.5829 29.1463C25.167 30.9799 23.7987 32.852 21.8742 32.852H13.7936C12.9424 32.852 12.2524 33.542 12.2524 34.3933C12.2524 35.2445 12.9424 35.9345 13.7936 35.9345H27.2166C29.6358 35.9345 31.7414 34.2805 32.3143 31.9301L32.6983 30.3548C33.3082 27.8528 31.4133 25.4406 28.8381 25.4406Z" fill="#FFD659" stroke="#0F0F0F" stroke-width="0.5"/>
<path d="M36.6874 7.40796H32.4366C31.8805 7.40796 31.4297 7.85878 31.4297 8.4149C31.4297 8.97102 31.8805 9.42184 32.4366 9.42184H36.6874C40.1068 9.42184 37.9734 11.9056 36.429 13.45L37.2712 15.8504C43.3352 9.36524 39.5811 7.40795 36.6874 7.40796Z" fill="#FFD659" stroke="#0F0F0F" stroke-width="0.5"/>
<rect x="35.5345" y="13.0127" width="1.76958" height="23.3753" rx="0.884788" transform="rotate(-20.8418 35.5345 13.0127)" fill="#FFD659" stroke="#0F0F0F" stroke-width="0.5"/>
<path opacity="0.3" fill-rule="evenodd" clip-rule="evenodd" d="M28.4695 25.4406C29.0237 26.4172 29.3821 27.8728 29.5265 29.1006C29.7717 31.1863 29.025 32.8015 27.7981 33.783C26.8911 34.5085 17.7184 34.4696 12.2642 34.2014C12.2564 34.2643 12.2524 34.3283 12.2524 34.3933C12.2524 35.2445 12.9424 35.9345 13.7936 35.9345H27.2166C29.6358 35.9345 31.7414 34.2805 32.3143 31.9301L32.6983 30.3548C33.3082 27.8528 31.4133 25.4406 28.8381 25.4406H28.4695Z" fill="#0F0F0F"/>
<path opacity="0.3" fill-rule="evenodd" clip-rule="evenodd" d="M5.87891 21.2418L7.48408 21.6626H22.7037L23.0284 23.5745H6.87891C6.32662 23.5745 5.87891 23.1268 5.87891 22.5745V21.2418Z" fill="#0F0F0F"/>
<path opacity="0.3" fill-rule="evenodd" clip-rule="evenodd" d="M33.4697 19.04L33.1748 20.8255C33.0951 21.3084 32.6776 21.6626 32.1882 21.6626H22.7037L23.0285 23.5749H33.0439C33.95 23.5749 34.7429 22.9658 34.9764 22.0903L35.6824 19.4432C35.8916 18.6586 35.7739 17.8227 35.3561 17.1264L34.9764 16.4938C34.7166 16.0609 34.3556 15.6899 33.8977 15.4772C32.8062 14.9701 31.6631 14.7285 30.5272 14.6749L31.3645 15.3023C32.1205 15.8688 32.7454 16.5917 33.1966 17.4217C33.4652 17.9157 33.5613 18.4852 33.4697 19.04Z" fill="#0F0F0F"/>
<path d="M12.743 4.4457L12.5165 1.60665L13.7398 4.1786C14.1407 5.02142 15.0203 5.52925 15.9506 5.45502L18.7897 5.22849L16.2177 6.45184C15.3749 6.85273 14.8671 7.73231 14.9413 8.66266L15.1678 11.5017L13.9445 8.92976C13.5436 8.08694 12.664 7.57911 11.7337 7.65334L8.89461 7.87986L11.4666 6.65652C12.3094 6.25563 12.8172 5.37604 12.743 4.4457Z" fill="white" stroke="#0F0F0F" stroke-width="0.5"/>
</svg>
