<svg width="58" height="58" viewBox="0 0 58 58" fill="none" xmlns="http://www.w3.org/2000/svg">
<rect width="58" height="58" rx="29" fill="#E3E9F3"/>
<ellipse opacity="0.3" cx="29" cy="43.6373" rx="22.4932" ry="1.59082" fill="#0F0F0F"/>
<path d="M45.4181 21.3537L45.0228 22.1445C44.7883 22.6134 44.7474 23.1556 44.9088 23.6544L44.9996 23.9354C45.1898 24.5233 45.6681 25.0153 46.2664 24.8608C47.1643 24.629 48.2318 23.8761 48.8151 22.8761C49.7726 21.2347 48.2457 20.558 46.9319 20.4143C46.2795 20.343 45.7116 20.7667 45.4181 21.3537Z" fill="#EA5F2A" stroke="#0F0F0F" stroke-width="0.5"/>
<path d="M12.5817 21.3537L12.977 22.1445C13.2115 22.6134 13.2524 23.1556 13.0911 23.6544L13.0002 23.9354C12.81 24.5233 12.3317 25.0153 11.7334 24.8608C10.8355 24.629 9.76805 23.8761 9.18473 22.8761C8.22721 21.2347 9.75416 20.558 11.0679 20.4143C11.7203 20.343 12.2882 20.7667 12.5817 21.3537Z" fill="#EA5F2A" stroke="#0F0F0F" stroke-width="0.5"/>
<path fill-rule="evenodd" clip-rule="evenodd" d="M11.9649 26.0233L14.1907 18.259C15.4202 13.9703 19.342 11.0148 23.8035 11.0148H27.4043H30.0475H33.6483C38.1099 11.0148 42.0317 13.9703 43.2611 18.259L45.487 26.0233H30.0475H27.4043H11.9649Z" fill="#EE6854"/>
<path d="M14.1907 18.259L13.9504 18.1901L14.1907 18.259ZM11.9649 26.0233L11.7246 25.9544L11.6331 26.2733H11.9649V26.0233ZM43.2611 18.259L43.0208 18.3279L43.2611 18.259ZM45.487 26.0233V26.2733H45.8187L45.7273 25.9544L45.487 26.0233ZM13.9504 18.1901L11.7246 25.9544L12.2052 26.0922L14.431 18.3279L13.9504 18.1901ZM23.8035 10.7648C19.2304 10.7648 15.2106 13.7942 13.9504 18.1901L14.431 18.3279C15.6297 14.1464 19.4535 11.2648 23.8035 11.2648V10.7648ZM27.4043 10.7648H23.8035V11.2648H27.4043V10.7648ZM27.4043 11.2648H30.0475V10.7648H27.4043V11.2648ZM30.0475 11.2648H33.6483V10.7648H30.0475V11.2648ZM33.6483 11.2648C37.9983 11.2648 41.8221 14.1464 43.0208 18.3279L43.5015 18.1901C42.2413 13.7942 38.2214 10.7648 33.6483 10.7648V11.2648ZM43.0208 18.3279L45.2466 26.0922L45.7273 25.9544L43.5015 18.1901L43.0208 18.3279ZM45.487 25.7733H30.0475V26.2733H45.487V25.7733ZM30.0475 25.7733H27.4043V26.2733H30.0475V25.7733ZM11.9649 26.2733H27.4043V25.7733H11.9649V26.2733Z" fill="#0F0F0F"/>
<path fill-rule="evenodd" clip-rule="evenodd" d="M14.3846 25.0456L15.8117 18.889C16.6523 15.2628 19.8827 12.6956 23.605 12.6956H26.8438H30.6082H33.847C37.5693 12.6956 40.7998 15.2628 41.6403 18.889L43.0675 25.0456H30.6082H26.8438H14.3846Z" fill="white"/>
<path d="M15.8117 18.889L16.0552 18.9455L15.8117 18.889ZM14.3846 25.0456L14.141 24.9891L14.07 25.2956H14.3846V25.0456ZM41.6403 18.889L41.3968 18.9455L41.6403 18.889ZM43.0675 25.0456V25.2956H43.3821L43.311 24.9891L43.0675 25.0456ZM15.5681 18.8325L14.141 24.9891L14.6281 25.102L16.0552 18.9455L15.5681 18.8325ZM23.605 12.4456C19.7664 12.4456 16.435 15.0931 15.5681 18.8325L16.0552 18.9455C16.8695 15.4326 19.9991 12.9456 23.605 12.9456V12.4456ZM26.8438 12.4456H23.605V12.9456H26.8438V12.4456ZM26.8438 12.9456H30.6082V12.4456H26.8438V12.9456ZM30.6082 12.9456H33.847V12.4456H30.6082V12.9456ZM33.847 12.9456C37.453 12.9456 40.5825 15.4326 41.3968 18.9455L41.8839 18.8325C41.0171 15.0931 37.6856 12.4456 33.847 12.4456V12.9456ZM41.3968 18.9455L42.8239 25.102L43.311 24.9891L41.8839 18.8325L41.3968 18.9455ZM43.0675 24.7956H30.6082V25.2956H43.0675V24.7956ZM30.6082 24.7956H26.8438V25.2956H30.6082V24.7956ZM14.3846 25.2956H26.8438V24.7956H14.3846V25.2956Z" fill="#0F0F0F"/>
<path opacity="0.2" fill-rule="evenodd" clip-rule="evenodd" d="M45.3703 26.0232H30.0479H27.4046H12.2579C13.878 22.6853 17.3 20.3842 21.2595 20.3842H36.3688C40.3283 20.3842 43.7502 22.6853 45.3703 26.0232Z" fill="#0F0F0F"/>
<path d="M9.57042 36.36C9.57042 35.8078 10.0181 35.36 10.5704 35.36H15.0212C15.5735 35.36 16.0212 35.8078 16.0212 36.36V41.9852C16.0212 42.5375 15.5735 42.9852 15.0212 42.9852H10.5704C10.0181 42.9852 9.57042 42.5375 9.57042 41.9852V36.36Z" fill="#0F0F0F" stroke="#0F0F0F" stroke-width="0.5"/>
<path d="M41.4319 36.36C41.4319 35.8078 41.8796 35.36 42.4319 35.36H46.8826C47.4349 35.36 47.8826 35.8078 47.8826 36.36V41.9852C47.8826 42.5375 47.4349 42.9852 46.8826 42.9852H42.4319C41.8796 42.9852 41.4319 42.5375 41.4319 41.9852V36.36Z" fill="#0F0F0F" stroke="#0F0F0F" stroke-width="0.5"/>
<path d="M9.57042 32.7981V35.697C9.57042 37.9061 11.3613 39.697 13.5704 39.697H43.8824C46.0916 39.697 47.8824 37.9061 47.8824 35.697V32.7981C47.8824 27.2753 43.4053 22.7981 37.8824 22.7981H19.5704C14.0476 22.7981 9.57042 27.2753 9.57042 32.7981Z" fill="#EE6854" stroke="#0F0F0F" stroke-width="0.5"/>
<path opacity="0.3" fill-rule="evenodd" clip-rule="evenodd" d="M9.9765 29.9696C10.5947 31.1828 11.8556 32.0137 13.3106 32.0137H44.1433C45.5982 32.0137 46.8591 31.1828 47.4773 29.9696C47.7413 30.8664 47.8829 31.8157 47.8829 32.798V35.6968C47.8829 37.906 46.0921 39.6968 43.8829 39.6968H13.5709C11.3618 39.6968 9.5709 37.906 9.5709 35.6968V32.798C9.5709 31.8157 9.71254 30.8664 9.9765 29.9696Z" fill="#0F0F0F"/>
<path d="M35.6584 31.2825V32.3891C35.6584 32.9414 36.1062 33.3891 36.6584 33.3891H43.5471C44.0994 33.3891 44.5471 32.9414 44.5471 32.3891V29.9209C44.5471 29.2907 43.9714 28.8177 43.3532 28.9399L36.4645 30.3015C35.9961 30.3941 35.6584 30.805 35.6584 31.2825Z" fill="#FFD659" stroke="#0F0F0F" stroke-width="0.5"/>
<path d="M21.6521 31.2693V32.3891C21.6521 32.9414 21.2044 33.3891 20.6521 33.3891H14.453C13.9007 33.3891 13.453 32.9414 13.453 32.3891V29.9408C13.453 29.3042 14.04 28.8296 14.6625 28.963L20.8616 30.2915C21.3227 30.3903 21.6521 30.7977 21.6521 31.2693Z" fill="#FFD659" stroke="#0F0F0F" stroke-width="0.5"/>
<path d="M41.4319 8.07376L44.334 3.01917" stroke="#0F0F0F" stroke-width="0.5" stroke-linecap="round" stroke-linejoin="round"/>
<path d="M43.617 10.9366L52.3709 5.89954" stroke="#0F0F0F" stroke-width="0.5" stroke-linecap="round" stroke-linejoin="round"/>
<path d="M6.78365 8.08095L6.55713 5.24191L7.78047 7.81385C8.18136 8.65667 9.06095 9.1645 9.99129 9.09027L12.8303 8.86375L10.2584 10.0871C9.41557 10.488 8.90774 11.3676 8.98197 12.2979L9.2085 15.137L7.98515 12.565C7.58426 11.7222 6.70468 11.2144 5.77433 11.2886L2.93529 11.5151L5.50723 10.2918C6.35005 9.89089 6.85788 9.0113 6.78365 8.08095Z" fill="white" stroke="#0F0F0F" stroke-width="0.5"/>
</svg>
