<svg width="58" height="58" viewBox="0 0 58 58" fill="none" xmlns="http://www.w3.org/2000/svg">
<rect width="58" height="58" rx="29" fill="#E3E9F3"/>
<path d="M6.86407 5.85476L6.63755 3.01571L7.86089 5.58766C8.26178 6.43048 9.14137 6.93831 10.0717 6.86408L12.9108 6.63755L10.3388 7.8609C9.49599 8.26178 8.98816 9.14137 9.06239 10.0717L9.28892 12.9108L8.06557 10.3388C7.66469 9.496 6.7851 8.98817 5.85475 9.0624L3.01571 9.28892L5.58765 8.06558C6.43047 7.66469 6.9383 6.7851 6.86407 5.85476Z" fill="white" stroke="#0F0F0F" stroke-width="0.5"/>
<path d="M40.6617 11.1667L43.5639 6.11212" stroke="#0F0F0F" stroke-width="0.5" stroke-linecap="round" stroke-linejoin="round"/>
<path d="M42.8471 14.0296L51.601 8.99249" stroke="#0F0F0F" stroke-width="0.5" stroke-linecap="round" stroke-linejoin="round"/>
<ellipse opacity="0.3" cx="29" cy="46.6597" rx="19.792" ry="1.59082" fill="#0F0F0F"/>
<path d="M35.9322 14.8165L9.28494 14.8165L9.28494 36.0696L35.9322 36.0696C36.6178 36.0696 37.1736 35.5138 37.1736 34.8282L37.1736 16.0579C37.1736 15.3723 36.6178 14.8165 35.9322 14.8165Z" fill="#AFD281" stroke="#0F0F0F" stroke-width="0.5" stroke-linejoin="round"/>
<path fill-rule="evenodd" clip-rule="evenodd" d="M33.486 20.8523C31.7166 20.6387 30.2843 19.331 29.8853 17.6257L9.28494 17.6257L9.28494 33.2583L29.8859 33.2583C30.2858 31.5544 31.7176 30.248 33.486 30.0345L33.486 20.8523Z" fill="#AFD281"/>
<path d="M29.8853 17.6257L29.8853 17.3757C30.0014 17.3757 30.1022 17.4557 30.1287 17.5688L29.8853 17.6257ZM33.486 20.8523L33.5159 20.6041C33.6415 20.6192 33.736 20.7258 33.736 20.8523L33.486 20.8523ZM9.28494 17.6257L9.03494 17.6257C9.03494 17.4877 9.14687 17.3757 9.28494 17.3757L9.28494 17.6257ZM9.28494 33.2583L9.28494 33.5083C9.14687 33.5083 9.03494 33.3964 9.03494 33.2583L9.28494 33.2583ZM29.8859 33.2583L30.1293 33.3155C30.1028 33.4285 30.002 33.5083 29.8859 33.5083L29.8859 33.2583ZM33.486 30.0345L33.736 30.0345C33.736 30.161 33.6415 30.2676 33.5159 30.2827L33.486 30.0345ZM30.1287 17.5688C30.504 19.1729 31.852 20.4032 33.5159 20.6041L33.456 21.1005C31.5813 20.8742 30.0645 19.4891 29.6419 17.6827L30.1287 17.5688ZM9.28494 17.3757L29.8853 17.3757L29.8853 17.8757L9.28494 17.8757L9.28494 17.3757ZM9.03494 33.2583L9.03494 17.6257L9.53494 17.6257L9.53494 33.2583L9.03494 33.2583ZM29.8859 33.5083L9.28494 33.5083L9.28494 33.0083L29.8859 33.0083L29.8859 33.5083ZM33.5159 30.2827C31.8529 30.4835 30.5055 31.7126 30.1293 33.3155L29.6425 33.2012C30.0661 31.3962 31.5823 30.0125 33.456 29.7863L33.5159 30.2827ZM33.736 20.8523L33.736 30.0345L33.236 30.0345L33.236 20.8523L33.736 20.8523Z" fill="#0F0F0F"/>
<path opacity="0.3" fill-rule="evenodd" clip-rule="evenodd" d="M37.1736 33.2583H9.28494V36.0696L35.9322 36.0696C36.6178 36.0696 37.1736 35.5138 37.1736 34.8282V33.2583Z" fill="#0F0F0F"/>
<circle cx="3.91193" cy="3.91193" r="3.91193" transform="matrix(-4.37114e-08 1 1 4.37114e-08 13.5608 21.5359)" stroke="#0F0F0F" stroke-width="0.5" stroke-linejoin="round"/>
<path d="M37.3122 30.332L30.6955 23.7153C29.5042 22.524 27.5727 22.524 26.3813 23.7153C25.19 24.9067 25.19 26.8383 26.3814 28.0296L34.4162 36.0638L23.2307 36.0638L27.084 39.9177C28.0153 40.849 29.2783 41.3723 30.5954 41.3723L43.4316 41.3723L43.4316 30.332L37.3122 30.332Z" fill="#FFD0C7"/>
<path d="M35.6302 37.2786L34.4162 36.0638M34.4162 36.0638L26.3814 28.0296C25.19 26.8383 25.19 24.9067 26.3813 23.7153V23.7153C27.5727 22.524 29.5042 22.524 30.6955 23.7153L37.3122 30.332L43.4316 30.332L43.4316 41.3723L30.5954 41.3723C29.2783 41.3723 28.0153 40.849 27.084 39.9177L23.2307 36.0638L34.4162 36.0638Z" stroke="#0F0F0F" stroke-width="0.5" stroke-linecap="round" stroke-linejoin="round"/>
<path d="M43.74 28.2307C42.7735 28.2307 41.99 29.0142 41.99 29.9807L41.99 41.6437C41.99 42.6102 42.7735 43.3937 43.74 43.3937L46.792 43.3937C47.7585 43.3937 48.542 42.6102 48.542 41.6437L48.542 29.9807C48.542 29.0142 47.7585 28.2307 46.792 28.2307L43.74 28.2307Z" fill="#EE6854" stroke="#0F0F0F" stroke-width="0.5"/>
<path opacity="0.3" fill-rule="evenodd" clip-rule="evenodd" d="M41.74 38.5767C41.7469 39.6753 42.6397 40.5638 43.74 40.5638L46.792 40.5638C47.8965 40.5638 48.792 39.6684 48.792 38.5638L48.792 29.9679C48.792 29.9722 48.792 29.9764 48.792 29.9807L48.792 41.6437C48.792 42.7482 47.8966 43.6437 46.792 43.6437L43.74 43.6437C42.6355 43.6437 41.74 42.7482 41.74 41.6437L41.74 38.5767Z" fill="#0F0F0F"/>
<path opacity="0.3" fill-rule="evenodd" clip-rule="evenodd" d="M24.7448 37.5824L35.8983 37.5824L34.3821 36.0662L23.2288 36.0662L24.7448 37.5824Z" fill="#0F0F0F"/>
</svg>
