<svg width="178" height="64" viewBox="0 0 178 64" fill="none" xmlns="http://www.w3.org/2000/svg">
<path d="M75.7327 24.0984H80.8695C83.9089 24.0984 86.1774 23.4135 86.1774 20.7596C86.1774 18.3197 84.4224 17.5492 80.9123 17.5492H75.7327V24.0984ZM75.7327 12.4122H80.9123C84.3368 12.4122 85.8776 11.2138 85.8776 8.85909C85.8776 6.71913 84.1656 5.56328 80.9552 5.56328H75.7327V12.4122ZM69.4831 27.1786V2.48309C69.4831 1.34726 70.4038 0.426514 71.5396 0.426514H80.6127C87.804 0.426514 92.1276 3.42294 92.1276 8.34573C92.1276 11.6417 90.3725 13.8675 87.6328 14.8951C90.501 15.7082 92.4272 17.5492 92.4272 21.1875C92.4272 26.838 87.4188 29.2351 80.5273 29.2351H71.5396C70.4038 29.2351 69.4831 28.3144 69.4831 27.1786Z" fill="white"/>
<path d="M112.022 18.6205C112.022 15.6238 109.71 13.1413 106.586 13.1413C103.461 13.1413 101.192 15.6238 101.192 18.6205C101.192 21.6167 103.461 24.0998 106.586 24.0998C109.71 24.0998 112.022 21.6167 112.022 18.6205ZM95.1134 18.5777C95.1134 12.4992 100.079 7.40506 106.586 7.40506C113.22 7.40506 118.1 12.1996 118.1 18.5777V29.2363H114.378C113.242 29.2363 112.321 28.3156 112.321 27.1798V26.7535C110.823 28.6372 108.512 29.7931 105.601 29.7931C99.4367 29.7931 95.1134 24.7417 95.1134 18.5777Z" fill="white"/>
<path d="M128.191 19.3482V29.1938H122.112V18.6207C122.112 12.4565 125.751 7.4053 133.157 7.4053C140.562 7.4053 144.286 12.4137 144.286 18.6207V29.1938H138.208V19.3482C138.208 16.0948 136.624 13.3128 133.157 13.3128C129.732 13.3128 128.191 16.0948 128.191 19.3482Z" fill="white"/>
<path d="M158.648 23.7138C155.652 23.7138 153.255 21.4451 153.255 18.4059C153.255 15.3667 155.652 13.1409 158.648 13.1409C161.687 13.1409 164.085 15.3667 164.085 18.4059C164.085 21.4451 161.687 23.7138 158.648 23.7138ZM158.734 7.40466C152.227 7.40466 147.262 12.413 147.262 18.5343C147.262 24.8267 152.013 29.4497 157.963 29.4497C160.96 29.4497 163.015 28.3367 164.17 26.8815V27.2668C164.17 31.4189 161.73 33.9446 158.134 33.9446C157.786 33.9446 157.455 33.9231 157.139 33.8818C155.913 33.7214 154.83 34.6839 154.83 35.9205V39.1291C155.886 39.3787 157.018 39.5093 158.22 39.5093C165.112 39.5093 170.249 34.6293 170.249 27.0956V18.5343C170.249 12.1563 165.369 7.40466 158.734 7.40466Z" fill="white"/>
<path d="M59.4147 57.4463C63.7653 57.4463 65.3434 55.6548 65.3434 52.4986L65.3058 36.2353C65.3032 35.0975 66.2247 34.174 67.3624 34.174H71.5712V52.0295C71.5712 59.2379 67.6469 63.4179 59.4147 63.4179V57.4463Z" fill="white"/>
<path d="M92.2747 52.4408C92.2747 49.4548 89.9713 46.9811 86.8578 46.9811C83.7439 46.9811 81.4832 49.4548 81.4832 52.4408C81.4832 55.4265 83.7439 57.9006 86.8578 57.9006C89.9713 57.9006 92.2747 55.4265 92.2747 52.4408ZM75.4266 52.3982C75.4266 46.3414 80.3742 41.2654 86.8578 41.2654C93.4688 41.2654 98.3315 46.0429 98.3315 52.3982V63.019H94.6298C93.4941 63.019 92.5732 62.0981 92.5732 60.9624V60.5449C91.0803 62.4219 88.7772 63.5735 85.8767 63.5735C79.7345 63.5735 75.4266 58.5403 75.4266 52.3982Z" fill="white"/>
<path d="M138.967 51.9862V63.0333H132.91V53.0096C132.91 49.7682 131.502 47.0384 128.175 47.0384C124.891 47.0384 123.483 49.7254 123.483 52.9244V63.0333H117.427V52.9672C117.427 49.7254 116.019 47.0384 112.735 47.0384C109.365 47.0384 108.043 49.7682 108.043 52.9672V63.0333H101.986V51.9862C101.986 46.0997 105.441 41.1521 112.266 41.1521C116.318 41.1521 119.261 42.9435 120.498 45.844C121.82 42.9435 124.806 41.1521 128.602 41.1521C135.469 41.1521 138.967 46.0997 138.967 51.9862Z" fill="white"/>
<path d="M149.945 41.9775V63.0912H143.888V44.0339C143.888 42.8983 144.809 41.9775 145.945 41.9775H149.945ZM143.163 35.068C143.163 33.0202 144.869 31.3142 146.917 31.3142C148.964 31.3142 150.628 33.0202 150.628 35.068C150.628 37.158 148.964 38.8211 146.917 38.8211C144.869 38.8211 143.163 37.158 143.163 35.068Z" fill="white"/>
<path d="M161.113 53.283V63.0935H155.057V52.5582C155.057 46.4159 158.682 41.3827 166.061 41.3827C173.441 41.3827 177.151 46.3732 177.151 52.5582V63.0935H171.095V53.283C171.095 50.0414 169.516 47.269 166.061 47.269C162.649 47.269 161.113 50.0414 161.113 53.283Z" fill="white"/>
<path d="M26.7515 34.9727C30.402 34.9727 33.364 32.4733 33.4362 29.3682H20.0669C20.1389 32.4733 23.1012 34.9727 26.7515 34.9727Z" fill="white"/>
<path d="M47.2191 0.428589H0.848816V4.53899C0.848816 10.3217 5.53668 15.0096 11.3194 15.0096H15.1519V15.0054H38.0542V34.5863C38.0542 36.25 37.2629 37.8145 35.9229 38.8005L32.9512 40.9682C31.0614 42.3466 28.8313 43.0284 26.603 43.0183C26.5787 43.0182 26.5547 43.0154 26.5304 43.0152C24.3903 42.991 22.2553 42.3314 20.4286 41.0237L17.3205 38.7985C15.9586 37.8149 15.1519 36.237 15.1519 34.5571V34.4157C15.1519 31.6051 12.8735 29.3268 10.0629 29.3268H0.848816V40.1437C0.848816 43.9222 2.66332 47.4707 5.7266 49.6831L22.5648 61.7382C23.7711 62.6018 25.1881 63.0265 26.603 63.0162C27.9721 63.0061 29.3391 62.589 30.5112 61.7593L47.564 49.6871C50.5777 47.4696 52.3571 43.951 52.3571 40.2094V5.56664C52.3571 2.7289 50.0566 0.428589 47.2191 0.428589Z" fill="white"/>
</svg>
