<svg width="58" height="59" viewBox="0 0 58 59" fill="none" xmlns="http://www.w3.org/2000/svg">
<rect y="1" width="58" height="58" rx="29" fill="#E3E9F3"/>
<ellipse opacity="0.3" cx="29" cy="44.6373" rx="19.792" ry="1.59082" fill="#0F0F0F"/>
<path d="M39.6387 33.6082L39.4122 30.7692L40.6356 33.3411C41.0364 34.184 41.916 34.6918 42.8464 34.6176L45.6854 34.391L43.1135 35.6144C42.2707 36.0153 41.7628 36.8949 41.8371 37.8252L42.0636 40.6642L40.8402 38.0923C40.4393 37.2495 39.5598 36.7416 38.6294 36.8159L35.7904 37.0424L38.3623 35.8191C39.2051 35.4182 39.713 34.5386 39.6387 33.6082Z" fill="white" stroke="#0F0F0F" stroke-width="0.5"/>
<path d="M28.4848 4.86519L28.7113 2.02615L27.488 4.59809C27.0871 5.44091 26.2075 5.94874 25.2772 5.87451L22.4381 5.64799L25.0101 6.87133C25.8529 7.27222 26.3607 8.15181 26.2865 9.08215L26.06 11.9212L27.2833 9.34925C27.6842 8.50643 28.5638 7.9986 29.4941 8.07283L32.3332 8.29936L29.7612 7.07601C28.9184 6.67513 28.4106 5.79554 28.4848 4.86519Z" fill="white" stroke="#0F0F0F" stroke-width="0.5"/>
<path d="M37.7615 14.5927L40.6637 9.53809" stroke="#0F0F0F" stroke-width="0.5" stroke-linecap="round" stroke-linejoin="round"/>
<path d="M39.9469 17.4555L48.7008 12.4185" stroke="#0F0F0F" stroke-width="0.5" stroke-linecap="round" stroke-linejoin="round"/>
<rect x="33.8917" y="16.5587" width="7.17969" height="34.7792" rx="2" transform="rotate(45 33.8917 16.5587)" fill="#EE6854" stroke="#0F0F0F" stroke-width="0.5"/>
<path d="M32.4779 17.9729C33.259 17.1919 34.5253 17.1919 35.3064 17.9729L37.5547 20.2213C38.3358 21.0024 38.3358 22.2687 37.5547 23.0497L34.6983 25.9061L29.6215 20.8293L32.4779 17.9729Z" fill="#FFD659" stroke="#0F0F0F" stroke-width="0.5"/>
<path opacity="0.3" fill-rule="evenodd" clip-rule="evenodd" d="M37.0577 19.7247L37.5543 20.2213C38.3353 21.0023 38.3353 22.2687 37.5543 23.0497L15.7901 44.8139C15.009 45.5949 13.7427 45.5949 12.9617 44.8139L10.7133 42.5655C9.93224 41.7844 9.93224 40.5181 10.7133 39.7371L11.5738 38.8766L13.3257 40.6284C14.1067 41.4094 15.373 41.4094 16.1541 40.6284L37.0577 19.7247Z" fill="#0F0F0F"/>
</svg>
