<svg width="25" height="24" viewBox="0 0 25 24" fill="none" xmlns="http://www.w3.org/2000/svg">
<path d="M10.016 14.8578C6.05221 14.8578 2.66669 15.4701 2.66669 17.9174C2.66669 20.3667 6.03069 21.0001 10.016 21.0001C13.9798 21.0001 17.3654 20.3877 17.3654 17.9404C17.3654 15.4912 14.0014 14.8578 10.016 14.8578Z" fill="#6850A1"/>
<path opacity="0.4" d="M10.016 12.5248C12.7157 12.5248 14.8791 10.4062 14.8791 7.76241C14.8791 5.11865 12.7157 3 10.016 3C7.3174 3 5.15302 5.11865 5.15302 7.76241C5.15302 10.4062 7.3174 12.5248 10.016 12.5248Z" fill="#6850A1"/>
<path opacity="0.4" d="M16.8405 7.84873C16.8405 9.19505 16.4275 10.4513 15.7035 11.4948C15.6281 11.6021 15.6947 11.7468 15.8258 11.7698C16.0078 11.7995 16.1947 11.8177 16.3855 11.8216C18.2837 11.8704 19.9872 10.6736 20.4579 8.87116C21.1555 6.19674 19.1086 3.79541 16.5009 3.79541C16.2181 3.79541 15.9471 3.82416 15.6829 3.87686C15.6467 3.88453 15.6076 3.90177 15.588 3.93244C15.5626 3.97172 15.5812 4.02251 15.6066 4.05605C16.3904 5.13214 16.8405 6.44205 16.8405 7.84873Z" fill="#6850A1"/>
<path d="M22.4461 15.1694C22.0988 14.444 21.2602 13.9467 19.9843 13.7023C19.3825 13.5586 17.7524 13.3545 16.2367 13.3832C16.2142 13.3861 16.2015 13.4014 16.1995 13.411C16.1966 13.4263 16.2035 13.4493 16.2328 13.4656C16.9334 13.8049 19.6408 15.2805 19.3003 18.3929C19.2856 18.5289 19.3962 18.6439 19.5342 18.6248C20.2005 18.5318 21.9148 18.1706 22.4461 17.0475C22.7406 16.4534 22.7406 15.7635 22.4461 15.1694Z" fill="#6850A1"/>
</svg>
