<svg width="58" height="58" viewBox="0 0 58 58" fill="none" xmlns="http://www.w3.org/2000/svg">
<rect width="58" height="58" rx="29" fill="#E3E9F3"/>
<path d="M48.0872 36.4598L47.8607 33.6208L49.084 36.1927C49.4849 37.0355 50.3645 37.5433 51.2949 37.4691L54.1339 37.2426L51.562 38.4659C50.7191 38.8668 50.2113 39.7464 50.2855 40.6768L50.5121 43.5158L49.2887 40.9439C48.8878 40.101 48.0082 39.5932 47.0779 39.6674L44.2389 39.894L46.8108 38.6706C47.6536 38.2697 48.1614 37.3901 48.0872 36.4598Z" fill="white" stroke="#0F0F0F" stroke-width="0.5"/>
<path d="M13.357 15.4872L7.72348 13.9921" stroke="#0F0F0F" stroke-width="0.5" stroke-linecap="round" stroke-linejoin="round"/>
<path d="M15.5567 12.6353L8.42554 5.4834" stroke="#0F0F0F" stroke-width="0.5" stroke-linecap="round" stroke-linejoin="round"/>
<ellipse opacity="0.3" cx="28.9998" cy="48.1223" rx="14.7585" ry="1.59082" fill="#0F0F0F"/>
<path d="M30.2045 44.5707C29.7335 44.8379 29.1713 44.8379 28.7002 44.5707C27.1754 43.7056 23.9102 41.6842 21.0294 38.7756C18.145 35.8635 15.6777 32.0948 15.6777 27.7321V16.8465C15.6777 16.1171 16.1302 15.4641 16.8133 15.208L28.8379 10.6987C29.2341 10.5502 29.6707 10.5502 30.0669 10.6987L42.0915 15.208C42.7745 15.4641 43.227 16.1171 43.227 16.8465V27.7321C43.227 32.0948 40.7598 35.8635 37.8754 38.7756C34.9946 41.6842 31.7294 43.7056 30.2045 44.5707Z" fill="#EEECEC" stroke="#0F0F0F" stroke-width="0.5"/>
<path d="M30.1984 40.7234C29.7309 40.9938 29.1743 40.9938 28.7068 40.7234C27.4202 39.979 24.923 38.388 22.7504 36.1458C20.5748 33.9005 18.754 31.0329 18.754 27.7321V19.5381C18.754 18.8086 19.2065 18.1557 19.8896 17.8995L28.8381 14.5438C29.2343 14.3952 29.6709 14.3952 30.0671 14.5438L39.0157 17.8995C39.6987 18.1557 40.1512 18.8086 40.1512 19.5381V27.7321C40.1512 31.0329 38.3305 33.9005 36.1549 36.1458C33.9823 38.388 31.485 39.979 30.1984 40.7234Z" fill="#EE6854" stroke="#0F0F0F" stroke-width="0.5"/>
<path opacity="0.3" fill-rule="evenodd" clip-rule="evenodd" d="M30.3281 44.7882C29.7806 45.0988 29.1247 45.0988 28.5771 44.7882C27.6167 44.2433 25.9693 43.2423 24.159 41.8504C39.215 36.2935 43.1528 23.102 43.2332 15.889C43.39 16.1766 43.4773 16.5042 43.4773 16.8466V27.7322C43.4773 36.65 33.3963 43.0476 30.3281 44.7882Z" fill="#0F0F0F"/>
<mask id="path-9-inside-1_1_3477" fill="white">
<path fill-rule="evenodd" clip-rule="evenodd" d="M48.8937 20.1909C49.2842 19.8003 49.2842 19.1672 48.8937 18.7767L46.3923 16.2753C46.0018 15.8848 45.3686 15.8848 44.9781 16.2753L35.1475 26.1059L29.8668 20.8252C29.4762 20.4347 28.8431 20.4347 28.4526 20.8252L25.9512 23.3266C25.5607 23.7171 25.5607 24.3503 25.9512 24.7408L31.9231 30.7127C31.9283 30.7181 31.9336 30.7235 31.9389 30.7288L34.4402 33.2301C34.8307 33.6206 35.4639 33.6206 35.8544 33.2301L48.8937 20.1909Z"/>
</mask>
<path fill-rule="evenodd" clip-rule="evenodd" d="M48.8937 20.1909C49.2842 19.8003 49.2842 19.1672 48.8937 18.7767L46.3923 16.2753C46.0018 15.8848 45.3686 15.8848 44.9781 16.2753L35.1475 26.1059L29.8668 20.8252C29.4762 20.4347 28.8431 20.4347 28.4526 20.8252L25.9512 23.3266C25.5607 23.7171 25.5607 24.3503 25.9512 24.7408L31.9231 30.7127C31.9283 30.7181 31.9336 30.7235 31.9389 30.7288L34.4402 33.2301C34.8307 33.6206 35.4639 33.6206 35.8544 33.2301L48.8937 20.1909Z" fill="#FFD659"/>
<path d="M48.8937 18.7767L49.2472 18.4231V18.4231L48.8937 18.7767ZM48.8937 20.1909L48.5401 19.8373L48.5401 19.8373L48.8937 20.1909ZM46.3923 16.2753L46.0388 16.6289V16.6289L46.3923 16.2753ZM44.9781 16.2753L44.6246 15.9218L44.6246 15.9218L44.9781 16.2753ZM35.1475 26.1059L34.7939 26.4595L35.1475 26.8131L35.501 26.4595L35.1475 26.1059ZM29.8668 20.8252L30.2203 20.4717V20.4717L29.8668 20.8252ZM28.4526 20.8252L28.8061 21.1788H28.8061L28.4526 20.8252ZM25.9512 23.3266L26.3048 23.6801H26.3048L25.9512 23.3266ZM25.9512 24.7408L26.3048 24.3872H26.3048L25.9512 24.7408ZM31.9231 30.7127L32.2845 30.3669L32.2767 30.3591L31.9231 30.7127ZM31.9389 30.7288L32.2924 30.3752L32.2924 30.3752L31.9389 30.7288ZM34.4402 33.2301L34.0867 33.5837L34.4402 33.2301ZM35.8544 33.2301L36.208 33.5837H36.208L35.8544 33.2301ZM48.5401 19.1302C48.7354 19.3255 48.7354 19.6421 48.5401 19.8373L49.2472 20.5444C49.833 19.9586 49.833 19.0089 49.2472 18.4231L48.5401 19.1302ZM46.0388 16.6289L48.5401 19.1302L49.2472 18.4231L46.7459 15.9218L46.0388 16.6289ZM45.3317 16.6289C45.5269 16.4336 45.8435 16.4336 46.0388 16.6289L46.7459 15.9218C46.1601 15.336 45.2104 15.336 44.6246 15.9218L45.3317 16.6289ZM35.501 26.4595L45.3317 16.6289L44.6246 15.9218L34.7939 25.7524L35.501 26.4595ZM29.5132 21.1788L34.7939 26.4595L35.501 25.7524L30.2203 20.4717L29.5132 21.1788ZM28.8061 21.1788C29.0014 20.9835 29.318 20.9835 29.5132 21.1788L30.2203 20.4717C29.6345 19.8859 28.6848 19.8859 28.099 20.4717L28.8061 21.1788ZM26.3048 23.6801L28.8061 21.1788L28.099 20.4717L25.5977 22.973L26.3048 23.6801ZM26.3048 24.3872C26.1095 24.192 26.1095 23.8754 26.3048 23.6801L25.5977 22.973C25.0119 23.5588 25.0119 24.5085 25.5977 25.0943L26.3048 24.3872ZM32.2767 30.3591L26.3048 24.3872L25.5977 25.0943L31.5696 31.0663L32.2767 30.3591ZM32.2924 30.3752C32.2897 30.3725 32.2871 30.3698 32.2844 30.367L31.5619 31.0584C31.5696 31.0664 31.5774 31.0744 31.5853 31.0823L32.2924 30.3752ZM34.7938 32.8766L32.2924 30.3752L31.5853 31.0823L34.0867 33.5837L34.7938 32.8766ZM35.5009 32.8766C35.3056 33.0718 34.989 33.0718 34.7938 32.8766L34.0867 33.5837C34.6724 34.1695 35.6222 34.1695 36.208 33.5837L35.5009 32.8766ZM48.5401 19.8373L35.5009 32.8766L36.208 33.5837L49.2472 20.5444L48.5401 19.8373Z" fill="#0F0F0F" mask="url(#path-9-inside-1_1_3477)"/>
</svg>
