<svg width="58" height="58" viewBox="0 0 58 58" fill="none" xmlns="http://www.w3.org/2000/svg">
<rect width="58" height="58" rx="29" fill="#E3E9F3"/>
<ellipse opacity="0.3" cx="29" cy="43.6373" rx="22.4932" ry="1.59082" fill="#0F0F0F"/>
<path d="M44.0043 13.2642L46.9065 8.20959" stroke="#0F0F0F" stroke-width="0.5" stroke-linecap="round" stroke-linejoin="round"/>
<path d="M46.1897 16.127L54.9436 11.09" stroke="#0F0F0F" stroke-width="0.5" stroke-linecap="round" stroke-linejoin="round"/>
<path d="M25.5587 49.4921L25.3322 46.653L26.5555 49.225C26.9564 50.0678 27.836 50.5756 28.7664 50.5014L31.6054 50.2749L29.0335 51.4982C28.1906 51.8991 27.6828 52.7787 27.757 53.709L27.9836 56.5481L26.7602 53.9761C26.3593 53.1333 25.4797 52.6255 24.5494 52.6997L21.7103 52.9263L24.2823 51.7029C25.1251 51.302 25.6329 50.4224 25.5587 49.4921Z" fill="white" stroke="#0F0F0F" stroke-width="0.5"/>
<path d="M42.1361 18.3392H34.6207V36.4183H52.0791V29.9131C52.0791 29.1462 51.6405 28.4468 50.9502 28.1128L47.8932 26.6336C47.4885 26.4377 47.1615 26.1112 46.9651 25.7067L43.9353 19.4657C43.6008 18.7766 42.9021 18.3392 42.1361 18.3392Z" fill="#EE6854" stroke="#0F0F0F" stroke-width="0.5"/>
<path d="M5.16748 16.6083C5.16748 15.5037 6.06291 14.6083 7.16748 14.6083H32.6208C33.7254 14.6083 34.6208 15.5037 34.6208 16.6083V36.4182H5.16748V16.6083Z" fill="#EEECEC" stroke="#0F0F0F" stroke-width="0.5"/>
<path fill-rule="evenodd" clip-rule="evenodd" d="M44.9327 21.5204H39.6552C39.1029 21.5204 38.6552 21.9682 38.6552 22.5204V26.34C38.6552 26.8922 39.1029 27.34 39.6552 27.34H49.3529L47.8931 26.6336C47.4884 26.4378 47.1614 26.1113 46.9651 25.7068L44.9327 21.5204Z" fill="white"/>
<path d="M44.9327 21.5204L45.1576 21.4113L45.0892 21.2704H44.9327V21.5204ZM49.3529 27.34V27.59L49.4618 27.1149L49.3529 27.34ZM47.8931 26.6336L48.002 26.4086H48.002L47.8931 26.6336ZM46.9651 25.7068L47.19 25.5976L46.9651 25.7068ZM39.6552 21.7704H44.9327V21.2704H39.6552V21.7704ZM38.9052 22.5204C38.9052 22.1062 39.241 21.7704 39.6552 21.7704V21.2704C38.9649 21.2704 38.4052 21.8301 38.4052 22.5204H38.9052ZM38.9052 26.34V22.5204H38.4052V26.34H38.9052ZM39.6552 27.09C39.241 27.09 38.9052 26.7542 38.9052 26.34H38.4052C38.4052 27.0303 38.9649 27.59 39.6552 27.59V27.09ZM49.3529 27.09H39.6552V27.59H49.3529V27.09ZM49.4618 27.1149L48.002 26.4086L47.7842 26.8587L49.244 27.565L49.4618 27.1149ZM48.002 26.4086C47.6479 26.2372 47.3618 25.9515 47.19 25.5976L46.7402 25.8159C46.9611 26.271 47.3289 26.6383 47.7842 26.8587L48.002 26.4086ZM47.19 25.5976L45.1576 21.4113L44.7078 21.6296L46.7402 25.8159L47.19 25.5976Z" fill="#0F0F0F"/>
<rect x="4.17139" y="36.4182" width="49.6572" height="2.10221" rx="1" fill="#838383" stroke="#0F0F0F" stroke-width="0.5"/>
<path d="M17.9082 38.5204C17.9082 41.0201 15.8818 43.0465 13.3821 43.0465C10.8825 43.0465 8.85608 41.0201 8.85608 38.5204C8.85608 36.0208 10.8825 33.9944 13.3821 33.9944C15.8818 33.9944 17.9082 36.0208 17.9082 38.5204Z" fill="#0F0F0F"/>
<path d="M17.6582 38.5204C17.6582 40.882 15.7437 42.7965 13.3821 42.7965V43.2965C16.0199 43.2965 18.1582 41.1582 18.1582 38.5204H17.6582ZM13.3821 42.7965C11.0205 42.7965 9.10608 40.882 9.10608 38.5204H8.60608C8.60608 41.1582 10.7444 43.2965 13.3821 43.2965V42.7965ZM9.10608 38.5204C9.10608 36.1588 11.0205 34.2444 13.3821 34.2444V33.7444C10.7444 33.7444 8.60608 35.8827 8.60608 38.5204H9.10608ZM13.3821 34.2444C15.7437 34.2444 17.6582 36.1588 17.6582 38.5204H18.1582C18.1582 35.8827 16.0199 33.7444 13.3821 33.7444V34.2444Z" fill="#0F0F0F"/>
<path d="M15.4195 38.5205C15.4195 39.6455 14.5075 40.5575 13.3824 40.5575C12.2574 40.5575 11.3454 39.6455 11.3454 38.5205C11.3454 37.3955 12.2574 36.4835 13.3824 36.4835C14.5075 36.4835 15.4195 37.3955 15.4195 38.5205Z" fill="white"/>
<path d="M15.1695 38.5205C15.1695 39.5075 14.3694 40.3075 13.3824 40.3075V40.8075C14.6455 40.8075 15.6695 39.7836 15.6695 38.5205H15.1695ZM13.3824 40.3075C12.3955 40.3075 11.5954 39.5075 11.5954 38.5205H11.0954C11.0954 39.7836 12.1194 40.8075 13.3824 40.8075V40.3075ZM11.5954 38.5205C11.5954 37.5336 12.3955 36.7335 13.3824 36.7335V36.2335C12.1194 36.2335 11.0954 37.2575 11.0954 38.5205H11.5954ZM13.3824 36.7335C14.3694 36.7335 15.1695 37.5336 15.1695 38.5205H15.6695C15.6695 37.2575 14.6455 36.2335 13.3824 36.2335V36.7335Z" fill="#0F0F0F"/>
<path d="M47.7073 38.5204C47.7073 41.0201 45.6809 43.0465 43.1813 43.0465C40.6816 43.0465 38.6552 41.0201 38.6552 38.5204C38.6552 36.0208 40.6816 33.9944 43.1813 33.9944C45.6809 33.9944 47.7073 36.0208 47.7073 38.5204Z" fill="#0F0F0F"/>
<path d="M47.4573 38.5204C47.4573 40.882 45.5429 42.7965 43.1813 42.7965V43.2965C45.819 43.2965 47.9573 41.1582 47.9573 38.5204H47.4573ZM43.1813 42.7965C40.8197 42.7965 38.9052 40.882 38.9052 38.5204H38.4052C38.4052 41.1582 40.5435 43.2965 43.1813 43.2965V42.7965ZM38.9052 38.5204C38.9052 36.1588 40.8197 34.2444 43.1813 34.2444V33.7444C40.5435 33.7444 38.4052 35.8827 38.4052 38.5204H38.9052ZM43.1813 34.2444C45.5429 34.2444 47.4573 36.1588 47.4573 38.5204H47.9573C47.9573 35.8827 45.819 33.7444 43.1813 33.7444V34.2444Z" fill="#0F0F0F"/>
<path d="M45.218 38.5205C45.218 39.6455 44.306 40.5575 43.181 40.5575C42.056 40.5575 41.144 39.6455 41.144 38.5205C41.144 37.3955 42.056 36.4835 43.181 36.4835C44.306 36.4835 45.218 37.3955 45.218 38.5205Z" fill="white"/>
<path d="M44.968 38.5205C44.968 39.5075 44.1679 40.3075 43.181 40.3075V40.8075C44.444 40.8075 45.468 39.7836 45.468 38.5205H44.968ZM43.181 40.3075C42.194 40.3075 41.394 39.5075 41.394 38.5205H40.894C40.894 39.7836 41.9179 40.8075 43.181 40.8075V40.3075ZM41.394 38.5205C41.394 37.5336 42.194 36.7335 43.181 36.7335V36.2335C41.9179 36.2335 40.894 37.2575 40.894 38.5205H41.394ZM43.181 36.7335C44.1679 36.7335 44.968 37.5336 44.968 38.5205H45.468C45.468 37.2575 44.444 36.2335 43.181 36.2335V36.7335Z" fill="#0F0F0F"/>
<rect opacity="0.3" x="5.4848" y="32.0555" width="29.1363" height="4.01157" fill="#0F0F0F"/>
<path opacity="0.3" fill-rule="evenodd" clip-rule="evenodd" d="M52.0791 30.4163C50.1745 31.4551 48.0349 32.0034 45.8544 32.0034H34.6208V36.4183H52.0791V30.4163Z" fill="#0F0F0F"/>
<path fill-rule="evenodd" clip-rule="evenodd" d="M5.16779 29.6949H8.82227C9.37455 29.6949 9.82227 30.1427 9.82227 30.6949V32.5715C9.82227 33.1238 9.37455 33.5715 8.82226 33.5715H5.16779V29.6949Z" fill="#FFD659"/>
<path d="M5.16779 29.6949H4.91779V29.4449H5.16779V29.6949ZM5.16779 33.5715V33.8215H4.91779V33.5715H5.16779ZM8.82227 29.9449H5.16779V29.4449H8.82227V29.9449ZM9.57227 30.6949C9.57227 30.2807 9.23648 29.9449 8.82227 29.9449V29.4449C9.51262 29.4449 10.0723 30.0046 10.0723 30.6949H9.57227ZM9.57227 32.5715V30.6949H10.0723V32.5715H9.57227ZM8.82226 33.3215C9.23648 33.3215 9.57227 32.9858 9.57227 32.5715H10.0723C10.0723 33.2619 9.51262 33.8215 8.82226 33.8215V33.3215ZM5.16779 33.3215H8.82226V33.8215H5.16779V33.3215ZM4.91779 33.5715V29.6949H5.41779V33.5715H4.91779Z" fill="#0F0F0F"/>
</svg>
