<svg width="24" height="24" viewBox="0 0 24 24" fill="none" xmlns="http://www.w3.org/2000/svg">
<path d="M16.5145 3C19.9607 3 21.9972 4.97862 21.9972 8.33786V8.37513H17.7625C15.7918 8.37859 14.1954 9.93514 14.1918 11.8566C14.1892 13.7823 15.7874 15.3458 17.7625 15.3484H22.0007V15.6543C22.0007 19.0136 19.9643 21 16.5181 21H7.48427C4.03716 21 2.00072 19.0136 2.00072 15.6543V8.33786C2.00072 4.97862 4.03716 3 7.48427 3H16.5145ZM12.3838 6.8749H6.74027C6.32072 6.87664 5.98027 7.20858 5.97849 7.61852C5.97672 8.03019 6.31805 8.36559 6.74027 8.36733H12.3909C12.8132 8.36559 13.1545 8.03019 13.1527 7.61765C13.1509 7.20598 12.8061 6.87318 12.3838 6.8749Z" fill="#EA5F2A"/>
<path opacity="0.4" d="M16.0378 12.2966C16.2469 13.2478 17.0809 13.917 18.033 13.8996H21.2829C21.6791 13.8996 22.0004 13.5715 22.0004 13.166V10.6345C21.9996 10.2298 21.6791 9.90083 21.2829 9.89996H17.9565C16.8735 9.90344 15.9987 10.8024 16.0004 11.9102C16.0004 12.0399 16.0132 12.1696 16.0378 12.2966Z" fill="#EA5F2A"/>
<path d="M18.0012 12.9C18.5535 12.9 19.0012 12.4523 19.0012 11.9C19.0012 11.3477 18.5535 10.9 18.0012 10.9C17.4489 10.9 17.0012 11.3477 17.0012 11.9C17.0012 12.4523 17.4489 12.9 18.0012 12.9Z" fill="#EA5F2A"/>
</svg>
